<svg xmlns="http://www.w3.org/2000/svg" viewBox="0 0 512 483.93"><defs><style>.cls-1{fill:#fff;}</style></defs><title>Asset 1</title><g id="Layer_2" data-name="Layer 2"><g id="Layer_1-2" data-name="Layer 1"><path class="cls-1" d="M64,483.93q0-110,0-220c0-1.5-.07-3,0-4.5a10.58,10.58,0,0,1,21.14,0c.12,1.83.06,3.66.06,5.5q0,95.24,0,190.47v6.85H191.79v-138H319.94V462.35H426.74v-6.64q0-90.24,0-180.47c0-1.83-.07-3.67.08-5.5a10.41,10.41,0,0,1,10.12-9.8,10.67,10.67,0,0,1,11,9.52,44,44,0,0,1,.09,5q0,104.73,0,209.47H299c-.09-2-.25-4-.25-6q0-63.2,0-126.4v-5.92H213.25v6.42q0,59.7,0,119.4c0,4.16-.15,8.31-.23,12.47Z"/><path class="cls-1" d="M0,245.93c2.88-3.17,5.59-6.52,8.68-9.47Q129.76,120.51,250.92,4.65c1.55-1.49,3.13-3,4.92-4.65,1.24,1.05,2.4,1.93,3.44,2.93q123.86,118.46,247.67,237a69.41,69.41,0,0,1,5.05,6v6c-5.65,9.8-12.1,10.74-20.34,2.86Q376,144.22,260.45,33.64c-1.32-1.26-2.67-2.5-4.4-4.12-1.37,1.24-2.7,2.4-4,3.62L23.38,251.87l-2.53,2.41C12.38,262.34,7.12,262,0,252.93Z"/><path class="cls-1" d="M426.74,36.3c0,15.09,0,29.74,0,44.38,0,13,.05,26,0,39,0,6.94-3.64,11.44-9.42,12.17-6.76.86-12-4.23-12-12.05-.08-18.83,0-37.66,0-56.5,0-1.81,0-3.62,0-6.14H399.5c-19.33,0-38.66.05-58-.06-6,0-10.05-3.76-10.65-9.15a10.44,10.44,0,0,1,7.42-11.56,12.16,12.16,0,0,1,3.44-.45q41.25,0,82.49,0A22.39,22.39,0,0,1,426.74,36.3Z"/></g></g></svg>